<svg width="95" height="85" viewBox="0 0 95 85" fill="none" xmlns="http://www.w3.org/2000/svg">
<mask id="path-1-outside-1_6_2" maskUnits="userSpaceOnUse" x="-0.271118" y="-0.226685" width="95" height="86" fill="black">
<rect fill="white" x="-0.271118" y="-0.226685" width="95" height="86"/>
<path d="M41.0289 70.0733C42.6956 72.94 43.5289 75.7066 43.5289 78.3733C43.5289 78.9733 43.4622 79.5066 43.3289 79.9733C43.2622 80.5066 43.1622 81.04 43.0289 81.5733C41.8956 81.44 40.6955 81.34 39.4289 81.2733C38.2289 81.2066 36.9622 81.1733 35.6289 81.1733C34.0289 81.1733 32.3955 81.2066 30.7289 81.2733C29.1289 81.4066 27.3289 81.5733 25.3289 81.7733C23.3289 81.9733 21.0955 82.24 18.6289 82.5733C16.1622 82.9066 13.2955 83.34 10.0289 83.8733C8.49555 83.34 6.96222 82.2733 5.42888 80.6733C3.89555 79.14 2.46222 77.2733 1.12888 75.0733C1.79555 73.6066 2.62888 71.8066 3.62888 69.6733C4.62888 67.4733 5.79555 64.84 7.12888 61.7733C8.46222 58.64 9.92888 55.0066 11.5289 50.8733C13.1955 46.6733 14.9622 41.84 16.8289 36.3733C18.0289 32.7733 19.0622 29.6066 19.9289 26.8733C20.7955 24.14 21.5622 21.5066 22.2289 18.9733C22.9622 16.3733 23.6622 13.6733 24.3289 10.8733C24.9956 8.07331 25.7289 4.83998 26.5289 1.17331C29.1956 1.70664 31.4956 2.70665 33.4289 4.17331C35.4289 5.57331 37.3289 7.60664 39.1289 10.2733C38.5956 11.14 37.8956 12.54 37.0289 14.4733C36.1622 16.4066 35.1289 18.7733 33.9289 21.5733C32.7956 24.3066 31.5289 27.44 30.1289 30.9733C28.7289 34.44 27.2622 38.1733 25.7289 42.1733C24.2622 46.1066 22.8289 49.8066 21.4289 53.2733C20.0289 56.74 18.7622 59.8733 17.6289 62.6733C16.5622 65.4733 15.6955 67.8733 15.0289 69.8733C14.3622 71.8733 14.0289 73.3733 14.0289 74.3733C15.0955 74.3066 16.0622 74.24 16.9289 74.1733C17.7955 74.1066 18.6955 74.0066 19.6289 73.8733C20.5622 73.6733 21.5622 73.4733 22.6289 73.2733C23.7622 73.0066 25.0956 72.6733 26.6289 72.2733C27.9622 71.94 29.1955 71.6733 30.3289 71.4733C31.4622 71.2066 32.5622 71.0066 33.6289 70.8733C34.7622 70.6733 35.8956 70.54 37.0289 70.4733C38.2289 70.34 39.5622 70.2066 41.0289 70.0733ZM91.0289 70.0733C92.6956 72.94 93.5289 75.7066 93.5289 78.3733C93.5289 78.9733 93.4622 79.5066 93.3289 79.9733C93.2622 80.5066 93.1622 81.04 93.0289 81.5733C91.8956 81.44 90.6955 81.34 89.4289 81.2733C88.2289 81.2066 86.9622 81.1733 85.6289 81.1733C84.0289 81.1733 82.3955 81.2066 80.7289 81.2733C79.1289 81.4066 77.3289 81.5733 75.3289 81.7733C73.3289 81.9733 71.0955 82.24 68.6289 82.5733C66.1622 82.9066 63.2955 83.34 60.0289 83.8733C58.4955 83.34 56.9622 82.2733 55.4289 80.6733C53.8955 79.14 52.4622 77.2733 51.1289 75.0733C51.7955 73.6066 52.6289 71.8066 53.6289 69.6733C54.6289 67.4733 55.7955 64.84 57.1289 61.7733C58.4622 58.64 59.9289 55.0066 61.5289 50.8733C63.1955 46.6733 64.9622 41.84 66.8289 36.3733C68.0289 32.7733 69.0622 29.6066 69.9289 26.8733C70.7955 24.14 71.5622 21.5066 72.2289 18.9733C72.9622 16.3733 73.6622 13.6733 74.3289 10.8733C74.9956 8.07331 75.7289 4.83998 76.5289 1.17331C79.1956 1.70664 81.4956 2.70665 83.4289 4.17331C85.4289 5.57331 87.3289 7.60664 89.1289 10.2733C88.5956 11.14 87.8956 12.54 87.0289 14.4733C86.1622 16.4066 85.1289 18.7733 83.9289 21.5733C82.7956 24.3066 81.5289 27.44 80.1289 30.9733C78.7289 34.44 77.2622 38.1733 75.7289 42.1733C74.2622 46.1066 72.8289 49.8066 71.4289 53.2733C70.0289 56.74 68.7622 59.8733 67.6289 62.6733C66.5622 65.4733 65.6955 67.8733 65.0289 69.8733C64.3622 71.8733 64.0289 73.3733 64.0289 74.3733C65.0955 74.3066 66.0622 74.24 66.9289 74.1733C67.7955 74.1066 68.6955 74.0066 69.6289 73.8733C70.5622 73.6733 71.5622 73.4733 72.6289 73.2733C73.7622 73.0066 75.0956 72.6733 76.6289 72.2733C77.9622 71.94 79.1955 71.6733 80.3289 71.4733C81.4622 71.2066 82.5622 71.0066 83.6289 70.8733C84.7622 70.6733 85.8956 70.54 87.0289 70.4733C88.2289 70.34 89.5622 70.2066 91.0289 70.0733Z"/>
</mask>
<path d="M41.0289 70.0733C42.6956 72.94 43.5289 75.7066 43.5289 78.3733C43.5289 78.9733 43.4622 79.5066 43.3289 79.9733C43.2622 80.5066 43.1622 81.04 43.0289 81.5733C41.8956 81.44 40.6955 81.34 39.4289 81.2733C38.2289 81.2066 36.9622 81.1733 35.6289 81.1733C34.0289 81.1733 32.3955 81.2066 30.7289 81.2733C29.1289 81.4066 27.3289 81.5733 25.3289 81.7733C23.3289 81.9733 21.0955 82.24 18.6289 82.5733C16.1622 82.9066 13.2955 83.34 10.0289 83.8733C8.49555 83.34 6.96222 82.2733 5.42888 80.6733C3.89555 79.14 2.46222 77.2733 1.12888 75.0733C1.79555 73.6066 2.62888 71.8066 3.62888 69.6733C4.62888 67.4733 5.79555 64.84 7.12888 61.7733C8.46222 58.64 9.92888 55.0066 11.5289 50.8733C13.1955 46.6733 14.9622 41.84 16.8289 36.3733C18.0289 32.7733 19.0622 29.6066 19.9289 26.8733C20.7955 24.14 21.5622 21.5066 22.2289 18.9733C22.9622 16.3733 23.6622 13.6733 24.3289 10.8733C24.9956 8.07331 25.7289 4.83998 26.5289 1.17331C29.1956 1.70664 31.4956 2.70665 33.4289 4.17331C35.4289 5.57331 37.3289 7.60664 39.1289 10.2733C38.5956 11.14 37.8956 12.54 37.0289 14.4733C36.1622 16.4066 35.1289 18.7733 33.9289 21.5733C32.7956 24.3066 31.5289 27.44 30.1289 30.9733C28.7289 34.44 27.2622 38.1733 25.7289 42.1733C24.2622 46.1066 22.8289 49.8066 21.4289 53.2733C20.0289 56.74 18.7622 59.8733 17.6289 62.6733C16.5622 65.4733 15.6955 67.8733 15.0289 69.8733C14.3622 71.8733 14.0289 73.3733 14.0289 74.3733C15.0955 74.3066 16.0622 74.24 16.9289 74.1733C17.7955 74.1066 18.6955 74.0066 19.6289 73.8733C20.5622 73.6733 21.5622 73.4733 22.6289 73.2733C23.7622 73.0066 25.0956 72.6733 26.6289 72.2733C27.9622 71.94 29.1955 71.6733 30.3289 71.4733C31.4622 71.2066 32.5622 71.0066 33.6289 70.8733C34.7622 70.6733 35.8956 70.54 37.0289 70.4733C38.2289 70.34 39.5622 70.2066 41.0289 70.0733ZM91.0289 70.0733C92.6956 72.94 93.5289 75.7066 93.5289 78.3733C93.5289 78.9733 93.4622 79.5066 93.3289 79.9733C93.2622 80.5066 93.1622 81.04 93.0289 81.5733C91.8956 81.44 90.6955 81.34 89.4289 81.2733C88.2289 81.2066 86.9622 81.1733 85.6289 81.1733C84.0289 81.1733 82.3955 81.2066 80.7289 81.2733C79.1289 81.4066 77.3289 81.5733 75.3289 81.7733C73.3289 81.9733 71.0955 82.24 68.6289 82.5733C66.1622 82.9066 63.2955 83.34 60.0289 83.8733C58.4955 83.34 56.9622 82.2733 55.4289 80.6733C53.8955 79.14 52.4622 77.2733 51.1289 75.0733C51.7955 73.6066 52.6289 71.8066 53.6289 69.6733C54.6289 67.4733 55.7955 64.84 57.1289 61.7733C58.4622 58.64 59.9289 55.0066 61.5289 50.8733C63.1955 46.6733 64.9622 41.84 66.8289 36.3733C68.0289 32.7733 69.0622 29.6066 69.9289 26.8733C70.7955 24.14 71.5622 21.5066 72.2289 18.9733C72.9622 16.3733 73.6622 13.6733 74.3289 10.8733C74.9956 8.07331 75.7289 4.83998 76.5289 1.17331C79.1956 1.70664 81.4956 2.70665 83.4289 4.17331C85.4289 5.57331 87.3289 7.60664 89.1289 10.2733C88.5956 11.14 87.8956 12.54 87.0289 14.4733C86.1622 16.4066 85.1289 18.7733 83.9289 21.5733C82.7956 24.3066 81.5289 27.44 80.1289 30.9733C78.7289 34.44 77.2622 38.1733 75.7289 42.1733C74.2622 46.1066 72.8289 49.8066 71.4289 53.2733C70.0289 56.74 68.7622 59.8733 67.6289 62.6733C66.5622 65.4733 65.6955 67.8733 65.0289 69.8733C64.3622 71.8733 64.0289 73.3733 64.0289 74.3733C65.0955 74.3066 66.0622 74.24 66.9289 74.1733C67.7955 74.1066 68.6955 74.0066 69.6289 73.8733C70.5622 73.6733 71.5622 73.4733 72.6289 73.2733C73.7622 73.0066 75.0956 72.6733 76.6289 72.2733C77.9622 71.94 79.1955 71.6733 80.3289 71.4733C81.4622 71.2066 82.5622 71.0066 83.6289 70.8733C84.7622 70.6733 85.8956 70.54 87.0289 70.4733C88.2289 70.34 89.5622 70.2066 91.0289 70.0733Z" fill="#2D5A3D"/>
<path d="M41.0289 70.0733L41.8934 69.5707L41.5731 69.0197L40.9383 69.0774L41.0289 70.0733ZM43.3289 79.9733L42.3674 79.6986L42.3462 79.7728L42.3366 79.8493L43.3289 79.9733ZM43.0289 81.5733L42.912 82.5665L43.7857 82.6692L43.999 81.8159L43.0289 81.5733ZM39.4289 81.2733L39.3734 82.2718L39.3763 82.2719L39.4289 81.2733ZM30.7289 81.2733L30.6889 80.2741L30.6673 80.275L30.6458 80.2768L30.7289 81.2733ZM10.0289 83.8733L9.70036 84.8178L9.93981 84.9011L10.19 84.8602L10.0289 83.8733ZM5.42888 80.6733L6.15087 79.9814L6.14351 79.9737L6.13599 79.9662L5.42888 80.6733ZM1.12888 75.0733L0.218516 74.6595L5.39737e-05 75.1401L0.273684 75.5916L1.12888 75.0733ZM3.62888 69.6733L4.5344 70.0978L4.53925 70.0871L3.62888 69.6733ZM7.12888 61.7733L8.04598 62.1721L8.04904 62.1649L7.12888 61.7733ZM11.5289 50.8733L10.5994 50.5045L10.5963 50.5123L11.5289 50.8733ZM16.8289 36.3733L17.7753 36.6965L17.7776 36.6895L16.8289 36.3733ZM19.9289 26.8733L20.8821 27.1756L20.8821 27.1756L19.9289 26.8733ZM22.2289 18.9733L21.2664 18.7019L21.264 18.7103L21.2618 18.7188L22.2289 18.9733ZM24.3289 10.8733L25.3017 11.1049L25.3017 11.1049L24.3289 10.8733ZM26.5289 1.17331L26.725 0.19273L25.7614 6.81106e-08L25.5519 0.960143L26.5289 1.17331ZM33.4289 4.17331L32.8245 4.97L32.8397 4.98157L32.8554 4.99255L33.4289 4.17331ZM39.1289 10.2733L39.9805 10.7974L40.3185 10.2483L39.9577 9.71384L39.1289 10.2733ZM37.0289 14.4733L37.9414 14.8824L37.9414 14.8824L37.0289 14.4733ZM33.9289 21.5733L33.0097 21.1794L33.0051 21.1903L33.9289 21.5733ZM30.1289 30.9733L31.0561 31.3478L31.0586 31.3417L30.1289 30.9733ZM25.7289 42.1733L24.7951 41.8154L24.7919 41.8239L25.7289 42.1733ZM17.6289 62.6733L16.7019 62.2981L16.6981 62.3077L16.6944 62.3173L17.6289 62.6733ZM15.0289 69.8733L15.9776 70.1895L15.9776 70.1895L15.0289 69.8733ZM14.0289 74.3733H13.0289V75.4378L14.0913 75.3714L14.0289 74.3733ZM19.6289 73.8733L19.7703 74.8633L19.8046 74.8584L19.8384 74.8511L19.6289 73.8733ZM22.6289 73.2733L22.8132 74.2562L22.8357 74.252L22.8579 74.2467L22.6289 73.2733ZM26.6289 72.2733L26.3863 71.3031L26.3765 71.3057L26.6289 72.2733ZM30.3289 71.4733L30.5027 72.4581L30.5305 72.4532L30.5579 72.4467L30.3289 71.4733ZM33.6289 70.8733L33.7529 71.8656L33.7779 71.8625L33.8027 71.8581L33.6289 70.8733ZM37.0289 70.4733L37.0876 71.4716L37.1135 71.4701L37.1393 71.4672L37.0289 70.4733ZM41.0289 70.0733L40.1644 70.5759C41.7637 73.3268 42.5289 75.9214 42.5289 78.3733H43.5289H44.5289C44.5289 75.4919 43.6274 72.5532 41.8934 69.5707L41.0289 70.0733ZM43.5289 78.3733H42.5289C42.5289 78.9014 42.47 79.3394 42.3674 79.6986L43.3289 79.9733L44.2904 80.248C44.4545 79.6739 44.5289 79.0453 44.5289 78.3733H43.5289ZM43.3289 79.9733L42.3366 79.8493C42.275 80.3418 42.1825 80.8356 42.0587 81.3308L43.0289 81.5733L43.999 81.8159C44.1419 81.2444 44.2494 80.6715 44.3212 80.0973L43.3289 79.9733ZM43.0289 81.5733L43.1457 80.5802C41.9888 80.4441 40.7673 80.3424 39.4814 80.2747L39.4289 81.2733L39.3763 82.2719C40.6238 82.3376 41.8023 82.4359 42.912 82.5665L43.0289 81.5733ZM39.4289 81.2733L39.4844 80.2749C38.264 80.2071 36.9787 80.1733 35.6289 80.1733V81.1733V82.1733C36.9457 82.1733 38.1938 82.2062 39.3734 82.2718L39.4289 81.2733ZM35.6289 81.1733V80.1733C34.015 80.1733 32.3683 80.2069 30.6889 80.2741L30.7289 81.2733L30.7689 82.2725C32.4228 82.2064 34.0428 82.1733 35.6289 82.1733V81.1733ZM30.7289 81.2733L30.6458 80.2768C29.0392 80.4107 27.2336 80.5779 25.2294 80.7783L25.3289 81.7733L25.4284 82.7684C27.4242 82.5688 29.2186 82.4026 30.8119 82.2699L30.7289 81.2733ZM25.3289 81.7733L25.2294 80.7783C23.2156 80.9797 20.9705 81.2478 18.495 81.5823L18.6289 82.5733L18.7628 83.5643C21.2206 83.2322 23.4422 82.967 25.4284 82.7684L25.3289 81.7733ZM18.6289 82.5733L18.495 81.5823C16.0168 81.9172 13.1407 82.352 9.86775 82.8864L10.0289 83.8733L10.19 84.8602C13.4504 84.3279 16.3076 83.8961 18.7628 83.5643L18.6289 82.5733ZM10.0289 83.8733L10.3574 82.9288C9.01768 82.4628 7.61276 81.5069 6.15087 79.9814L5.42888 80.6733L4.70689 81.3652C6.31167 83.0398 7.97342 84.2171 9.70036 84.8178L10.0289 83.8733ZM5.42888 80.6733L6.13599 79.9662C4.66878 78.499 3.28328 76.6987 1.98408 74.555L1.12888 75.0733L0.273684 75.5916C1.64115 77.8479 3.12232 79.781 4.72178 81.3804L5.42888 80.6733ZM1.12888 75.0733L2.03925 75.4871C2.70375 74.0252 3.53532 72.229 4.53434 70.0977L3.62888 69.6733L2.72342 69.2489C1.72245 71.3843 0.887347 73.1881 0.218516 74.6595L1.12888 75.0733ZM3.62888 69.6733L4.53925 70.0871C5.5422 67.8806 6.71119 65.242 8.04595 62.172L7.12888 61.7733L6.21181 61.3746C4.87991 64.438 3.71557 67.066 2.71852 69.2595L3.62888 69.6733ZM7.12888 61.7733L8.04904 62.1649C9.38773 59.0189 10.8586 55.375 12.4615 51.2343L11.5289 50.8733L10.5963 50.5123C8.99918 54.6383 7.5367 58.261 6.20873 61.3818L7.12888 61.7733ZM11.5289 50.8733L12.4584 51.2422C14.1324 47.0236 15.9047 42.1745 17.7752 36.6965L16.8289 36.3733L15.8825 36.0502C14.0198 41.5055 12.2587 46.323 10.5994 50.5045L11.5289 50.8733ZM16.8289 36.3733L17.7776 36.6895C18.9787 33.0863 20.0136 29.9148 20.8821 27.1756L19.9289 26.8733L18.9757 26.5711C18.1109 29.2985 17.0791 32.4604 15.8802 36.0571L16.8289 36.3733ZM19.9289 26.8733L20.8821 27.1756C21.7533 24.4279 22.5247 21.7786 23.196 19.2278L22.2289 18.9733L21.2618 18.7188C20.5997 21.2347 19.8378 23.8521 18.9757 26.5711L19.9289 26.8733ZM22.2289 18.9733L23.1913 19.2448C23.9286 16.6307 24.632 13.9174 25.3017 11.1049L24.3289 10.8733L23.3561 10.6417C22.6924 13.4292 21.9958 16.1159 21.2664 18.7019L22.2289 18.9733ZM24.3289 10.8733L25.3017 11.1049C25.9702 8.29728 26.7049 5.05758 27.5059 1.38648L26.5289 1.17331L25.5519 0.960143C24.7528 4.62238 24.0209 7.84934 23.3561 10.6417L24.3289 10.8733ZM26.5289 1.17331L26.3328 2.15389C28.8692 2.66118 31.0254 3.6052 32.8245 4.97L33.4289 4.17331L34.0333 3.37662C31.9657 1.80809 29.5219 0.752106 26.725 0.19273L26.5289 1.17331ZM33.4289 4.17331L32.8554 4.99255C34.7288 6.30393 36.548 8.23711 38.3 10.8328L39.1289 10.2733L39.9577 9.71384C38.1098 6.97618 36.1289 4.84269 34.0023 3.35408L33.4289 4.17331ZM39.1289 10.2733L38.2772 9.74921C37.7079 10.6743 36.9861 12.1241 36.1164 14.0643L37.0289 14.4733L37.9414 14.8824C38.805 12.9559 39.4832 11.6056 39.9805 10.7974L39.1289 10.2733ZM37.0289 14.4733L36.1164 14.0643C35.2467 16.0043 34.2111 18.3763 33.0097 21.1794L33.9289 21.5733L34.848 21.9672C36.0467 19.1703 37.0777 16.809 37.9414 14.8824L37.0289 14.4733ZM33.9289 21.5733L33.0051 21.1903C31.8693 23.9296 30.6006 27.068 29.1992 30.6049L30.1289 30.9733L31.0586 31.3417C32.4571 27.8119 33.7218 24.6837 34.8526 21.9563L33.9289 21.5733ZM30.1289 30.9733L29.2016 30.5989C27.7991 34.0717 26.3303 37.8106 24.7951 41.8154L25.7289 42.1733L26.6626 42.5312C28.1941 38.536 29.6586 34.8082 31.0561 31.3478L30.1289 30.9733ZM25.7289 42.1733L24.7919 41.8239C23.328 45.7499 21.8979 49.4414 20.5016 52.8989L21.4289 53.2733L22.3561 53.6478C23.7599 50.1719 25.1964 46.4634 26.6659 42.5227L25.7289 42.1733ZM21.4289 53.2733L20.5016 52.8989C19.1017 56.3653 17.8352 59.4984 16.7019 62.2981L17.6289 62.6733L18.5558 63.0485C19.6893 60.2482 20.956 57.1146 22.3561 53.6478L21.4289 53.2733ZM17.6289 62.6733L16.6944 62.3173C15.6246 65.1255 14.7527 67.5395 14.0802 69.5571L15.0289 69.8733L15.9776 70.1895C16.6384 68.2071 17.4998 65.8211 18.5634 63.0293L17.6289 62.6733ZM15.0289 69.8733L14.0802 69.5571C13.4086 71.5719 13.0289 73.2017 13.0289 74.3733H14.0289H15.0289C15.0289 73.5449 15.3158 72.1748 15.9776 70.1895L15.0289 69.8733ZM14.0289 74.3733L14.0913 75.3714C15.1617 75.3045 16.1332 75.2375 17.0056 75.1704L16.9289 74.1733L16.8522 73.1763C15.9912 73.2425 15.0294 73.3088 13.9665 73.3753L14.0289 74.3733ZM16.9289 74.1733L17.0056 75.1704C17.8956 75.1019 18.8173 74.9994 19.7703 74.8633L19.6289 73.8733L19.4875 72.8834C18.5738 73.0139 17.6955 73.1114 16.8522 73.1763L16.9289 74.1733ZM19.6289 73.8733L19.8384 74.8511C20.7623 74.6531 21.7538 74.4548 22.8132 74.2562L22.6289 73.2733L22.4446 72.2904C21.3706 72.4918 20.3621 72.6935 19.4194 72.8955L19.6289 73.8733ZM22.6289 73.2733L22.8579 74.2467C24.0013 73.9777 25.3428 73.6423 26.8813 73.2409L26.6289 72.2733L26.3765 71.3057C24.8483 71.7043 23.5232 72.0356 22.3998 72.2999L22.6289 73.2733ZM26.6289 72.2733L26.8714 73.2435C28.1862 72.9148 29.3963 72.6533 30.5027 72.4581L30.3289 71.4733L30.1551 70.4885C28.9948 70.6933 27.7382 70.9652 26.3863 71.3032L26.6289 72.2733ZM30.3289 71.4733L30.5579 72.4467C31.6594 72.1876 32.7243 71.9942 33.7529 71.8656L33.6289 70.8733L33.5048 69.881C32.4001 70.0191 31.265 70.2257 30.0998 70.4999L30.3289 71.4733ZM33.6289 70.8733L33.8027 71.8581C34.8985 71.6647 35.9934 71.536 37.0876 71.4716L37.0289 70.4733L36.9702 69.475C35.7977 69.544 34.626 69.6819 33.4551 69.8885L33.6289 70.8733ZM37.0289 70.4733L37.1393 71.4672C38.3314 71.3347 39.658 71.2021 41.1194 71.0692L41.0289 70.0733L40.9383 69.0774C39.4664 69.2112 38.1263 69.3452 36.9185 69.4794L37.0289 70.4733ZM91.0289 70.0733L91.8934 69.5707L91.5731 69.0197L90.9383 69.0774L91.0289 70.0733ZM93.3289 79.9733L92.3674 79.6986L92.3462 79.7728L92.3366 79.8493L93.3289 79.9733ZM93.0289 81.5733L92.912 82.5665L93.7857 82.6692L93.999 81.8159L93.0289 81.5733ZM89.4289 81.2733L89.3734 82.2718L89.3763 82.2719L89.4289 81.2733ZM80.7289 81.2733L80.6889 80.2741L80.6673 80.275L80.6458 80.2768L80.7289 81.2733ZM60.0289 83.8733L59.7004 84.8178L59.9398 84.9011L60.19 84.8602L60.0289 83.8733ZM55.4289 80.6733L56.1509 79.9814L56.1435 79.9737L56.136 79.9662L55.4289 80.6733ZM51.1289 75.0733L50.2185 74.6595L50.0001 75.1401L50.2737 75.5916L51.1289 75.0733ZM53.6289 69.6733L54.5344 70.0978L54.5392 70.0871L53.6289 69.6733ZM57.1289 61.7733L58.046 62.1721L58.049 62.1649L57.1289 61.7733ZM61.5289 50.8733L60.5994 50.5045L60.5963 50.5123L61.5289 50.8733ZM66.8289 36.3733L67.7753 36.6965L67.7776 36.6895L66.8289 36.3733ZM69.9289 26.8733L70.8821 27.1756L70.8821 27.1756L69.9289 26.8733ZM72.2289 18.9733L71.2664 18.7019L71.264 18.7103L71.2618 18.7188L72.2289 18.9733ZM74.3289 10.8733L75.3017 11.1049L75.3017 11.1049L74.3289 10.8733ZM76.5289 1.17331L76.725 0.19273L75.7614 6.81106e-08L75.5519 0.960143L76.5289 1.17331ZM83.4289 4.17331L82.8245 4.97L82.8397 4.98157L82.8554 4.99255L83.4289 4.17331ZM89.1289 10.2733L89.9805 10.7974L90.3185 10.2483L89.9577 9.71384L89.1289 10.2733ZM87.0289 14.4733L87.9414 14.8824L87.9414 14.8824L87.0289 14.4733ZM83.9289 21.5733L83.0097 21.1794L83.0051 21.1903L83.9289 21.5733ZM80.1289 30.9733L81.0561 31.3478L81.0586 31.3417L80.1289 30.9733ZM75.7289 42.1733L74.7951 41.8154L74.7919 41.8239L75.7289 42.1733ZM67.6289 62.6733L66.7019 62.2981L66.6981 62.3077L66.6944 62.3173L67.6289 62.6733ZM65.0289 69.8733L65.9776 70.1895L65.9776 70.1895L65.0289 69.8733ZM64.0289 74.3733H63.0289V75.4378L64.0913 75.3714L64.0289 74.3733ZM69.6289 73.8733L69.7703 74.8633L69.8046 74.8584L69.8384 74.8511L69.6289 73.8733ZM72.6289 73.2733L72.8132 74.2562L72.8357 74.252L72.8579 74.2467L72.6289 73.2733ZM76.6289 72.2733L76.3863 71.3031L76.3765 71.3057L76.6289 72.2733ZM80.3289 71.4733L80.5027 72.4581L80.5305 72.4532L80.5579 72.4467L80.3289 71.4733ZM83.6289 70.8733L83.7529 71.8656L83.7779 71.8625L83.8027 71.8581L83.6289 70.8733ZM87.0289 70.4733L87.0876 71.4716L87.1135 71.4701L87.1393 71.4672L87.0289 70.4733ZM91.0289 70.0733L90.1644 70.5759C91.7637 73.3268 92.5289 75.9214 92.5289 78.3733H93.5289H94.5289C94.5289 75.4919 93.6274 72.5532 91.8934 69.5707L91.0289 70.0733ZM93.5289 78.3733H92.5289C92.5289 78.9014 92.47 79.3394 92.3674 79.6986L93.3289 79.9733L94.2904 80.248C94.4545 79.6739 94.5289 79.0453 94.5289 78.3733H93.5289ZM93.3289 79.9733L92.3366 79.8493C92.275 80.3418 92.1825 80.8356 92.0587 81.3308L93.0289 81.5733L93.999 81.8159C94.1419 81.2444 94.2494 80.6715 94.3212 80.0973L93.3289 79.9733ZM93.0289 81.5733L93.1457 80.5802C91.9888 80.4441 90.7673 80.3424 89.4814 80.2747L89.4289 81.2733L89.3763 82.2719C90.6238 82.3376 91.8023 82.4359 92.912 82.5665L93.0289 81.5733ZM89.4289 81.2733L89.4844 80.2749C88.264 80.2071 86.9787 80.1733 85.6289 80.1733V81.1733V82.1733C86.9457 82.1733 88.1938 82.2062 89.3734 82.2718L89.4289 81.2733ZM85.6289 81.1733V80.1733C84.015 80.1733 82.3683 80.2069 80.6889 80.2741L80.7289 81.2733L80.7689 82.2725C82.4228 82.2064 84.0428 82.1733 85.6289 82.1733V81.1733ZM80.7289 81.2733L80.6458 80.2768C79.0392 80.4107 77.2336 80.5779 75.2294 80.7783L75.3289 81.7733L75.4284 82.7684C77.4242 82.5688 79.2186 82.4026 80.8119 82.2699L80.7289 81.2733ZM75.3289 81.7733L75.2294 80.7783C73.2156 80.9797 70.9705 81.2478 68.495 81.5823L68.6289 82.5733L68.7628 83.5643C71.2206 83.2322 73.4422 82.967 75.4284 82.7684L75.3289 81.7733ZM68.6289 82.5733L68.495 81.5823C66.0168 81.9172 63.1407 82.352 59.8678 82.8864L60.0289 83.8733L60.19 84.8602C63.4504 84.3279 66.3076 83.8961 68.7628 83.5643L68.6289 82.5733ZM60.0289 83.8733L60.3574 82.9288C59.0177 82.4628 57.6128 81.5069 56.1509 79.9814L55.4289 80.6733L54.7069 81.3652C56.3117 83.0398 57.9734 84.2171 59.7004 84.8178L60.0289 83.8733ZM55.4289 80.6733L56.136 79.9662C54.6688 78.499 53.2833 76.6987 51.9841 74.555L51.1289 75.0733L50.2737 75.5916C51.6411 77.8479 53.1223 79.781 54.7218 81.3804L55.4289 80.6733ZM51.1289 75.0733L52.0392 75.4871C52.7038 74.0252 53.5353 72.229 54.5343 70.0977L53.6289 69.6733L52.7234 69.2489C51.7224 71.3843 50.8873 73.1881 50.2185 74.6595L51.1289 75.0733ZM53.6289 69.6733L54.5392 70.0871C55.5422 67.8806 56.7112 65.242 58.046 62.172L57.1289 61.7733L56.2118 61.3746C54.8799 64.438 53.7156 67.066 52.7185 69.2595L53.6289 69.6733ZM57.1289 61.7733L58.049 62.1649C59.3877 59.0189 60.8586 55.375 62.4615 51.2343L61.5289 50.8733L60.5963 50.5123C58.9992 54.6383 57.5367 58.261 56.2087 61.3818L57.1289 61.7733ZM61.5289 50.8733L62.4584 51.2422C64.1324 47.0236 65.9047 42.1745 67.7752 36.6965L66.8289 36.3733L65.8825 36.0502C64.0198 41.5055 62.2587 46.323 60.5994 50.5045L61.5289 50.8733ZM66.8289 36.3733L67.7776 36.6895C68.9787 33.0863 70.0136 29.9148 70.8821 27.1756L69.9289 26.8733L68.9757 26.5711C68.1109 29.2985 67.0791 32.4604 65.8802 36.0571L66.8289 36.3733ZM69.9289 26.8733L70.8821 27.1756C71.7533 24.4279 72.5247 21.7786 73.196 19.2278L72.2289 18.9733L71.2618 18.7188C70.5997 21.2347 69.8378 23.8521 68.9757 26.5711L69.9289 26.8733ZM72.2289 18.9733L73.1913 19.2448C73.9286 16.6307 74.632 13.9174 75.3017 11.1049L74.3289 10.8733L73.3561 10.6417C72.6924 13.4292 71.9958 16.1159 71.2664 18.7019L72.2289 18.9733ZM74.3289 10.8733L75.3017 11.1049C75.9702 8.29728 76.7049 5.05758 77.5059 1.38648L76.5289 1.17331L75.5519 0.960143C74.7528 4.62238 74.0209 7.84934 73.3561 10.6417L74.3289 10.8733ZM76.5289 1.17331L76.3328 2.15389C78.8692 2.66118 81.0254 3.6052 82.8245 4.97L83.4289 4.17331L84.0333 3.37662C81.9657 1.80809 79.5219 0.752106 76.725 0.19273L76.5289 1.17331ZM83.4289 4.17331L82.8554 4.99255C84.7288 6.30393 86.548 8.23711 88.3 10.8328L89.1289 10.2733L89.9577 9.71384C88.1098 6.97618 86.1289 4.84269 84.0023 3.35408L83.4289 4.17331ZM89.1289 10.2733L88.2772 9.74921C87.7079 10.6743 86.9861 12.1241 86.1164 14.0643L87.0289 14.4733L87.9414 14.8824C88.805 12.9559 89.4832 11.6056 89.9805 10.7974L89.1289 10.2733ZM87.0289 14.4733L86.1164 14.0643C85.2467 16.0043 84.2111 18.3763 83.0097 21.1794L83.9289 21.5733L84.848 21.9672C86.0467 19.1703 87.0777 16.809 87.9414 14.8824L87.0289 14.4733ZM83.9289 21.5733L83.0051 21.1903C81.8693 23.9296 80.6006 27.068 79.1992 30.6049L80.1289 30.9733L81.0586 31.3417C82.4571 27.8119 83.7218 24.6837 84.8526 21.9563L83.9289 21.5733ZM80.1289 30.9733L79.2016 30.5989C77.7991 34.0717 76.3303 37.8106 74.7951 41.8154L75.7289 42.1733L76.6626 42.5312C78.1941 38.536 79.6586 34.8082 81.0561 31.3478L80.1289 30.9733ZM75.7289 42.1733L74.7919 41.8239C73.328 45.7499 71.8979 49.4414 70.5016 52.8989L71.4289 53.2733L72.3561 53.6478C73.7599 50.1719 75.1964 46.4634 76.6659 42.5227L75.7289 42.1733ZM71.4289 53.2733L70.5016 52.8989C69.1017 56.3653 67.8352 59.4984 66.7019 62.2981L67.6289 62.6733L68.5558 63.0485C69.6893 60.2482 70.956 57.1146 72.3561 53.6478L71.4289 53.2733ZM67.6289 62.6733L66.6944 62.3173C65.6246 65.1255 64.7527 67.5395 64.0802 69.5571L65.0289 69.8733L65.9776 70.1895C66.6384 68.2071 67.4998 65.8211 68.5634 63.0293L67.6289 62.6733ZM65.0289 69.8733L64.0802 69.5571C63.4086 71.5719 63.0289 73.2017 63.0289 74.3733H64.0289H65.0289C65.0289 73.5449 65.3158 72.1748 65.9776 70.1895L65.0289 69.8733ZM64.0289 74.3733L64.0913 75.3714C65.1617 75.3045 66.1332 75.2375 67.0056 75.1704L66.9289 74.1733L66.8522 73.1763C65.9912 73.2425 65.0294 73.3088 63.9665 73.3753L64.0289 74.3733ZM66.9289 74.1733L67.0056 75.1704C67.8956 75.1019 68.8173 74.9994 69.7703 74.8633L69.6289 73.8733L69.4875 72.8834C68.5738 73.0139 67.6955 73.1114 66.8522 73.1763L66.9289 74.1733ZM69.6289 73.8733L69.8384 74.8511C70.7623 74.6531 71.7538 74.4548 72.8132 74.2562L72.6289 73.2733L72.4446 72.2904C71.3706 72.4918 70.3621 72.6935 69.4194 72.8955L69.6289 73.8733ZM72.6289 73.2733L72.8579 74.2467C74.0013 73.9777 75.3428 73.6423 76.8813 73.2409L76.6289 72.2733L76.3765 71.3057C74.8483 71.7043 73.5232 72.0356 72.3998 72.2999L72.6289 73.2733ZM76.6289 72.2733L76.8714 73.2435C78.1862 72.9148 79.3963 72.6533 80.5027 72.4581L80.3289 71.4733L80.1551 70.4885C78.9948 70.6933 77.7382 70.9652 76.3863 71.3032L76.6289 72.2733ZM80.3289 71.4733L80.5579 72.4467C81.6594 72.1876 82.7243 71.9942 83.7529 71.8656L83.6289 70.8733L83.5048 69.881C82.4001 70.0191 81.265 70.2257 80.0998 70.4999L80.3289 71.4733ZM83.6289 70.8733L83.8027 71.8581C84.8985 71.6647 85.9934 71.536 87.0876 71.4716L87.0289 70.4733L86.9702 69.475C85.7977 69.544 84.626 69.6819 83.4551 69.8885L83.6289 70.8733ZM87.0289 70.4733L87.1393 71.4672C88.3314 71.3347 89.658 71.2021 91.1194 71.0692L91.0289 70.0733L90.9383 69.0774C89.4664 69.2112 88.1263 69.3452 86.9185 69.4794L87.0289 70.4733Z" fill="#2A5238" mask="url(#path-1-outside-1_6_2)"/>
</svg>
